<mxfile host="app.diagrams.net" modified="2022-08-15T10:37:18.508Z" agent="5.0 (Windows NT 10.0; Win64; x64) AppleWebKit/537.36 (KHTML, like Gecko) Chrome/104.0.0.0 Safari/537.36" etag="IepzomXfjevitZ5Aif43" version="20.2.3" type="github">
  <diagram name="Page-1" id="e56a1550-8fbb-45ad-956c-1786394a9013">
    <mxGraphModel dx="1422" dy="1644" grid="1" gridSize="10" guides="1" tooltips="1" connect="1" arrows="1" fold="1" page="1" pageScale="1" pageWidth="1100" pageHeight="850" background="none" math="0" shadow="0">
      <root>
        <mxCell id="0" />
        <mxCell id="1" parent="0" />
        <mxCell id="Kd_VAQXIcEHXok77GXxw-1" value="Staff" style="swimlane;childLayout=stackLayout;horizontal=1;startSize=30;horizontalStack=0;rounded=1;fontSize=14;fontStyle=0;strokeWidth=2;resizeParent=0;resizeLast=1;shadow=0;dashed=0;align=center;" parent="1" vertex="1">
          <mxGeometry x="10" y="-210" width="160" height="120" as="geometry" />
        </mxCell>
        <mxCell id="Kd_VAQXIcEHXok77GXxw-2" value="+idStaff&#xa;+name&#xa;+email&#xa;+username&#xa;+password&#xa;+codeStaff" style="align=left;strokeColor=none;fillColor=none;spacingLeft=4;fontSize=12;verticalAlign=top;resizable=0;rotatable=0;part=1;" parent="Kd_VAQXIcEHXok77GXxw-1" vertex="1">
          <mxGeometry y="30" width="160" height="90" as="geometry" />
        </mxCell>
        <mxCell id="Kd_VAQXIcEHXok77GXxw-8" value="Hotel" style="swimlane;childLayout=stackLayout;horizontal=1;startSize=30;horizontalStack=0;rounded=1;fontSize=14;fontStyle=0;strokeWidth=2;resizeParent=0;resizeLast=1;shadow=0;dashed=0;align=center;" parent="1" vertex="1">
          <mxGeometry x="100" y="270" width="160" height="120" as="geometry" />
        </mxCell>
        <mxCell id="Kd_VAQXIcEHXok77GXxw-9" value="+idHotel&#xa;+name&#xa;+location&#xa;+codeHotel" style="align=left;strokeColor=none;fillColor=none;spacingLeft=4;fontSize=12;verticalAlign=top;resizable=0;rotatable=0;part=1;" parent="Kd_VAQXIcEHXok77GXxw-8" vertex="1">
          <mxGeometry y="30" width="160" height="90" as="geometry" />
        </mxCell>
        <mxCell id="Kd_VAQXIcEHXok77GXxw-10" value="Room" style="swimlane;childLayout=stackLayout;horizontal=1;startSize=30;horizontalStack=0;rounded=1;fontSize=14;fontStyle=0;strokeWidth=2;resizeParent=0;resizeLast=1;shadow=0;dashed=0;align=center;" parent="1" vertex="1">
          <mxGeometry x="480" y="260" width="160" height="160" as="geometry" />
        </mxCell>
        <mxCell id="Kd_VAQXIcEHXok77GXxw-11" value="+idRoom&#xa;+name&#xa;+price&#xa;+size&#xa;+imageUrl&#xa;+state&#xa;+codeRoom" style="align=left;strokeColor=none;fillColor=none;spacingLeft=4;fontSize=12;verticalAlign=top;resizable=0;rotatable=0;part=1;" parent="Kd_VAQXIcEHXok77GXxw-10" vertex="1">
          <mxGeometry y="30" width="160" height="130" as="geometry" />
        </mxCell>
        <mxCell id="Kd_VAQXIcEHXok77GXxw-16" value="Services" style="swimlane;childLayout=stackLayout;horizontal=1;startSize=30;horizontalStack=0;rounded=1;fontSize=14;fontStyle=0;strokeWidth=2;resizeParent=0;resizeLast=1;shadow=0;dashed=0;align=center;" parent="1" vertex="1">
          <mxGeometry x="900" y="260" width="160" height="120" as="geometry" />
        </mxCell>
        <mxCell id="Kd_VAQXIcEHXok77GXxw-17" value="+idService&#xa;+name&#xa;+price&#xa;+codeService" style="align=left;strokeColor=none;fillColor=none;spacingLeft=4;fontSize=12;verticalAlign=top;resizable=0;rotatable=0;part=1;" parent="Kd_VAQXIcEHXok77GXxw-16" vertex="1">
          <mxGeometry y="30" width="160" height="90" as="geometry" />
        </mxCell>
        <mxCell id="Kd_VAQXIcEHXok77GXxw-46" value="Belong" style="shape=rhombus;perimeter=rhombusPerimeter;whiteSpace=wrap;html=1;align=center;" parent="1" vertex="1">
          <mxGeometry x="310" y="300" width="120" height="60" as="geometry" />
        </mxCell>
        <mxCell id="Kd_VAQXIcEHXok77GXxw-47" value="" style="endArrow=none;html=1;rounded=0;strokeWidth=1;exitX=1;exitY=0.333;exitDx=0;exitDy=0;exitPerimeter=0;entryX=0;entryY=0.5;entryDx=0;entryDy=0;" parent="1" source="Kd_VAQXIcEHXok77GXxw-9" target="Kd_VAQXIcEHXok77GXxw-46" edge="1">
          <mxGeometry relative="1" as="geometry">
            <mxPoint x="290" y="260.00476190476195" as="sourcePoint" />
            <mxPoint x="350" y="320" as="targetPoint" />
          </mxGeometry>
        </mxCell>
        <mxCell id="Kd_VAQXIcEHXok77GXxw-48" value="" style="endArrow=none;html=1;rounded=0;strokeWidth=1;exitX=1;exitY=0.5;exitDx=0;exitDy=0;" parent="1" source="Kd_VAQXIcEHXok77GXxw-46" target="Kd_VAQXIcEHXok77GXxw-11" edge="1">
          <mxGeometry relative="1" as="geometry">
            <mxPoint x="400" y="300.00476190476195" as="sourcePoint" />
            <mxPoint x="472.72727272727275" y="301.73636363636365" as="targetPoint" />
          </mxGeometry>
        </mxCell>
        <mxCell id="Kd_VAQXIcEHXok77GXxw-49" value="" style="endArrow=none;html=1;rounded=0;strokeWidth=1;exitX=1;exitY=0.5;exitDx=0;exitDy=0;" parent="1" source="Kd_VAQXIcEHXok77GXxw-50" target="Kd_VAQXIcEHXok77GXxw-17" edge="1">
          <mxGeometry relative="1" as="geometry">
            <mxPoint x="690" y="319.13476190476194" as="sourcePoint" />
            <mxPoint x="762.7272727272727" y="320.86636363636364" as="targetPoint" />
          </mxGeometry>
        </mxCell>
        <mxCell id="Kd_VAQXIcEHXok77GXxw-95" style="edgeStyle=none;rounded=0;orthogonalLoop=1;jettySize=auto;html=1;exitX=0.5;exitY=0;exitDx=0;exitDy=0;strokeWidth=1;endArrow=none;endFill=0;" parent="1" source="Kd_VAQXIcEHXok77GXxw-50" target="Kd_VAQXIcEHXok77GXxw-93" edge="1">
          <mxGeometry relative="1" as="geometry" />
        </mxCell>
        <mxCell id="Kd_VAQXIcEHXok77GXxw-50" value="uses" style="shape=rhombus;perimeter=rhombusPerimeter;whiteSpace=wrap;html=1;align=center;" parent="1" vertex="1">
          <mxGeometry x="710" y="300" width="120" height="60" as="geometry" />
        </mxCell>
        <mxCell id="Kd_VAQXIcEHXok77GXxw-51" value="" style="endArrow=none;html=1;rounded=0;strokeWidth=1;entryX=0;entryY=0.5;entryDx=0;entryDy=0;exitX=1;exitY=0.356;exitDx=0;exitDy=0;exitPerimeter=0;" parent="1" source="Kd_VAQXIcEHXok77GXxw-11" target="Kd_VAQXIcEHXok77GXxw-50" edge="1">
          <mxGeometry relative="1" as="geometry">
            <mxPoint x="670" y="270.00476190476195" as="sourcePoint" />
            <mxPoint x="742.7272727272727" y="271.73636363636365" as="targetPoint" />
          </mxGeometry>
        </mxCell>
        <mxCell id="Kd_VAQXIcEHXok77GXxw-54" value="Order" style="shape=rhombus;perimeter=rhombusPerimeter;whiteSpace=wrap;html=1;align=center;" parent="1" vertex="1">
          <mxGeometry x="770" y="-30" width="120" height="60" as="geometry" />
        </mxCell>
        <mxCell id="Kd_VAQXIcEHXok77GXxw-60" value="Customer" style="swimlane;childLayout=stackLayout;horizontal=1;startSize=30;horizontalStack=0;rounded=1;fontSize=14;fontStyle=0;strokeWidth=2;resizeParent=0;resizeLast=1;shadow=0;dashed=0;align=center;" parent="1" vertex="1">
          <mxGeometry x="510" y="-220" width="160" height="120" as="geometry" />
        </mxCell>
        <mxCell id="Kd_VAQXIcEHXok77GXxw-61" value="+idCustomer&#xa;+name&#xa;+email&#xa;+username&#xa;+password&#xa;+codeCustomer" style="align=left;strokeColor=none;fillColor=none;spacingLeft=4;fontSize=12;verticalAlign=top;resizable=0;rotatable=0;part=1;" parent="Kd_VAQXIcEHXok77GXxw-60" vertex="1">
          <mxGeometry y="30" width="160" height="90" as="geometry" />
        </mxCell>
        <mxCell id="Kd_VAQXIcEHXok77GXxw-67" value="" style="endArrow=none;html=1;rounded=0;strokeWidth=1;exitX=0.5;exitY=1;exitDx=0;exitDy=0;" parent="1" source="Kd_VAQXIcEHXok77GXxw-54" target="Kd_VAQXIcEHXok77GXxw-10" edge="1">
          <mxGeometry relative="1" as="geometry">
            <mxPoint x="590" y="180" as="sourcePoint" />
            <mxPoint x="590" y="260" as="targetPoint" />
          </mxGeometry>
        </mxCell>
        <mxCell id="Kd_VAQXIcEHXok77GXxw-74" value="" style="endArrow=none;html=1;rounded=0;strokeWidth=1;exitX=1;exitY=0.5;exitDx=0;exitDy=0;entryX=0.5;entryY=0;entryDx=0;entryDy=0;" parent="1" source="Kd_VAQXIcEHXok77GXxw-61" target="Kd_VAQXIcEHXok77GXxw-54" edge="1">
          <mxGeometry relative="1" as="geometry">
            <mxPoint x="420" y="-200" as="sourcePoint" />
            <mxPoint x="499.99999999999955" y="-130.00000000000023" as="targetPoint" />
          </mxGeometry>
        </mxCell>
        <mxCell id="Kd_VAQXIcEHXok77GXxw-76" value="Borrow" style="shape=rhombus;perimeter=rhombusPerimeter;whiteSpace=wrap;html=1;align=center;" parent="1" vertex="1">
          <mxGeometry x="510" y="70" width="120" height="60" as="geometry" />
        </mxCell>
        <mxCell id="Kd_VAQXIcEHXok77GXxw-77" value="" style="endArrow=none;html=1;rounded=0;strokeWidth=1;entryX=0.5;entryY=0;entryDx=0;entryDy=0;" parent="1" source="Kd_VAQXIcEHXok77GXxw-61" target="Kd_VAQXIcEHXok77GXxw-76" edge="1">
          <mxGeometry relative="1" as="geometry">
            <mxPoint x="269.99999999999955" y="-270.0000000000002" as="sourcePoint" />
            <mxPoint x="299.99999999999955" y="45" as="targetPoint" />
          </mxGeometry>
        </mxCell>
        <mxCell id="Kd_VAQXIcEHXok77GXxw-78" value="" style="endArrow=none;html=1;rounded=0;strokeWidth=1;exitX=0.5;exitY=1;exitDx=0;exitDy=0;" parent="1" source="Kd_VAQXIcEHXok77GXxw-76" target="Kd_VAQXIcEHXok77GXxw-10" edge="1">
          <mxGeometry relative="1" as="geometry">
            <mxPoint x="419.99999999999955" y="104.99999999999977" as="sourcePoint" />
            <mxPoint x="439.99999999999955" y="380" as="targetPoint" />
          </mxGeometry>
        </mxCell>
        <mxCell id="Kd_VAQXIcEHXok77GXxw-79" value="Belong" style="shape=rhombus;perimeter=rhombusPerimeter;whiteSpace=wrap;html=1;align=center;" parent="1" vertex="1">
          <mxGeometry x="30" y="60" width="120" height="60" as="geometry" />
        </mxCell>
        <mxCell id="Kd_VAQXIcEHXok77GXxw-80" value="" style="endArrow=none;html=1;rounded=0;strokeWidth=1;exitX=0.5;exitY=1;exitDx=0;exitDy=0;entryX=0.5;entryY=0;entryDx=0;entryDy=0;" parent="1" source="Kd_VAQXIcEHXok77GXxw-2" target="Kd_VAQXIcEHXok77GXxw-79" edge="1">
          <mxGeometry relative="1" as="geometry">
            <mxPoint x="69.99999999999955" y="9.999999999999773" as="sourcePoint" />
            <mxPoint x="-10.000000000000455" y="175" as="targetPoint" />
          </mxGeometry>
        </mxCell>
        <mxCell id="Kd_VAQXIcEHXok77GXxw-83" value="" style="endArrow=none;html=1;rounded=0;strokeWidth=1;exitX=0.5;exitY=1;exitDx=0;exitDy=0;entryX=0.5;entryY=0;entryDx=0;entryDy=0;" parent="1" source="Kd_VAQXIcEHXok77GXxw-79" target="Kd_VAQXIcEHXok77GXxw-8" edge="1">
          <mxGeometry relative="1" as="geometry">
            <mxPoint x="59.999999999999545" y="69.99999999999977" as="sourcePoint" />
            <mxPoint x="-20.000000000000455" y="235" as="targetPoint" />
          </mxGeometry>
        </mxCell>
        <mxCell id="Kd_VAQXIcEHXok77GXxw-84" value="leave" style="ellipse;whiteSpace=wrap;html=1;align=center;" parent="1" vertex="1">
          <mxGeometry x="990" y="40" width="100" height="40" as="geometry" />
        </mxCell>
        <mxCell id="Kd_VAQXIcEHXok77GXxw-85" value="" style="endArrow=none;html=1;rounded=0;strokeWidth=1;exitX=0;exitY=1;exitDx=0;exitDy=0;entryX=1;entryY=0.5;entryDx=0;entryDy=0;" parent="1" source="Kd_VAQXIcEHXok77GXxw-84" target="Kd_VAQXIcEHXok77GXxw-54" edge="1">
          <mxGeometry relative="1" as="geometry">
            <mxPoint x="800" y="80" as="sourcePoint" />
            <mxPoint x="670" y="290" as="targetPoint" />
          </mxGeometry>
        </mxCell>
        <mxCell id="Kd_VAQXIcEHXok77GXxw-86" value="Arrive" style="ellipse;whiteSpace=wrap;html=1;align=center;" parent="1" vertex="1">
          <mxGeometry x="990" y="-150" width="100" height="40" as="geometry" />
        </mxCell>
        <mxCell id="Kd_VAQXIcEHXok77GXxw-88" value="" style="endArrow=none;html=1;rounded=0;strokeWidth=1;entryX=0;entryY=0.5;entryDx=0;entryDy=0;exitX=1;exitY=0.5;exitDx=0;exitDy=0;" parent="1" target="Kd_VAQXIcEHXok77GXxw-86" edge="1" source="Kd_VAQXIcEHXok77GXxw-54">
          <mxGeometry relative="1" as="geometry">
            <mxPoint x="880" as="sourcePoint" />
            <mxPoint x="535.1500000000004" y="5.77" as="targetPoint" />
          </mxGeometry>
        </mxCell>
        <mxCell id="Kd_VAQXIcEHXok77GXxw-89" value="Checkin&amp;nbsp;" style="ellipse;whiteSpace=wrap;html=1;align=center;" parent="1" vertex="1">
          <mxGeometry x="640" y="-40" width="100" height="40" as="geometry" />
        </mxCell>
        <mxCell id="Kd_VAQXIcEHXok77GXxw-90" value="Checkout" style="ellipse;whiteSpace=wrap;html=1;align=center;" parent="1" vertex="1">
          <mxGeometry x="620" y="110" width="100" height="40" as="geometry" />
        </mxCell>
        <mxCell id="Kd_VAQXIcEHXok77GXxw-91" value="" style="endArrow=none;html=1;rounded=0;strokeWidth=1;entryX=1;entryY=0.5;entryDx=0;entryDy=0;" parent="1" source="Kd_VAQXIcEHXok77GXxw-89" target="Kd_VAQXIcEHXok77GXxw-76" edge="1">
          <mxGeometry relative="1" as="geometry">
            <mxPoint x="410" y="-125.00000000000023" as="sourcePoint" />
            <mxPoint x="310" y="30" as="targetPoint" />
          </mxGeometry>
        </mxCell>
        <mxCell id="Kd_VAQXIcEHXok77GXxw-92" value="" style="endArrow=none;html=1;rounded=0;strokeWidth=1;entryX=1;entryY=0.5;entryDx=0;entryDy=0;" parent="1" source="Kd_VAQXIcEHXok77GXxw-90" target="Kd_VAQXIcEHXok77GXxw-76" edge="1">
          <mxGeometry relative="1" as="geometry">
            <mxPoint x="854.8544793961578" y="44.2255678634599" as="sourcePoint" />
            <mxPoint x="760.0000000000005" y="30" as="targetPoint" />
          </mxGeometry>
        </mxCell>
        <mxCell id="Kd_VAQXIcEHXok77GXxw-93" value="time" style="ellipse;whiteSpace=wrap;html=1;align=center;" parent="1" vertex="1">
          <mxGeometry x="760" y="210" width="100" height="40" as="geometry" />
        </mxCell>
        <mxCell id="TzVSilA2Bh1R2aP9luoq-2" value="Bill" style="swimlane;childLayout=stackLayout;horizontal=1;startSize=30;horizontalStack=0;rounded=1;fontSize=14;fontStyle=0;strokeWidth=2;resizeParent=0;resizeLast=1;shadow=0;dashed=0;align=center;" parent="1" vertex="1">
          <mxGeometry x="380" y="-500" width="160" height="120" as="geometry" />
        </mxCell>
        <mxCell id="TzVSilA2Bh1R2aP9luoq-3" value="+idBill&#xa;+date&#xa;+price" style="align=left;strokeColor=none;fillColor=none;spacingLeft=4;fontSize=12;verticalAlign=top;resizable=0;rotatable=0;part=1;" parent="TzVSilA2Bh1R2aP9luoq-2" vertex="1">
          <mxGeometry y="30" width="160" height="90" as="geometry" />
        </mxCell>
        <mxCell id="TzVSilA2Bh1R2aP9luoq-6" value="" style="endArrow=none;html=1;rounded=0;strokeWidth=1;exitX=0;exitY=0.5;exitDx=0;exitDy=0;entryX=0.5;entryY=0;entryDx=0;entryDy=0;" parent="1" source="TzVSilA2Bh1R2aP9luoq-3" target="TzVSilA2Bh1R2aP9luoq-10" edge="1">
          <mxGeometry relative="1" as="geometry">
            <mxPoint x="180" y="-410" as="sourcePoint" />
            <mxPoint x="300" y="-285" as="targetPoint" />
          </mxGeometry>
        </mxCell>
        <mxCell id="TzVSilA2Bh1R2aP9luoq-7" value="Belong" style="shape=rhombus;perimeter=rhombusPerimeter;whiteSpace=wrap;html=1;align=center;" parent="1" vertex="1">
          <mxGeometry x="410" y="-330" width="120" height="60" as="geometry" />
        </mxCell>
        <mxCell id="TzVSilA2Bh1R2aP9luoq-8" value="" style="endArrow=none;html=1;rounded=0;strokeWidth=1;exitX=0.5;exitY=1;exitDx=0;exitDy=0;entryX=0.5;entryY=0;entryDx=0;entryDy=0;" parent="1" source="TzVSilA2Bh1R2aP9luoq-3" target="TzVSilA2Bh1R2aP9luoq-7" edge="1">
          <mxGeometry relative="1" as="geometry">
            <mxPoint x="380" y="-370.0000000000002" as="sourcePoint" />
            <mxPoint x="380" y="-160" as="targetPoint" />
          </mxGeometry>
        </mxCell>
        <mxCell id="TzVSilA2Bh1R2aP9luoq-9" value="" style="endArrow=none;html=1;rounded=0;strokeWidth=1;exitX=0.5;exitY=1;exitDx=0;exitDy=0;" parent="1" source="TzVSilA2Bh1R2aP9luoq-7" target="Kd_VAQXIcEHXok77GXxw-60" edge="1">
          <mxGeometry relative="1" as="geometry">
            <mxPoint x="350" y="-250.00000000000023" as="sourcePoint" />
            <mxPoint x="350" y="-40" as="targetPoint" />
          </mxGeometry>
        </mxCell>
        <mxCell id="TzVSilA2Bh1R2aP9luoq-10" value="Belong" style="shape=rhombus;perimeter=rhombusPerimeter;whiteSpace=wrap;html=1;align=center;" parent="1" vertex="1">
          <mxGeometry x="230" y="-360" width="120" height="60" as="geometry" />
        </mxCell>
        <mxCell id="TzVSilA2Bh1R2aP9luoq-12" value="" style="endArrow=none;html=1;rounded=0;strokeWidth=1;exitX=0.5;exitY=1;exitDx=0;exitDy=0;" parent="1" source="TzVSilA2Bh1R2aP9luoq-10" target="Kd_VAQXIcEHXok77GXxw-1" edge="1">
          <mxGeometry relative="1" as="geometry">
            <mxPoint x="240" y="-320.0000000000002" as="sourcePoint" />
            <mxPoint x="130" y="-165" as="targetPoint" />
          </mxGeometry>
        </mxCell>
        <mxCell id="vDGiRW4YoNIJTdE8wxLJ-4" value="HotelRating" style="shape=rhombus;perimeter=rhombusPerimeter;whiteSpace=wrap;html=1;align=center;" parent="1" vertex="1">
          <mxGeometry x="170" y="-30" width="120" height="60" as="geometry" />
        </mxCell>
        <mxCell id="vDGiRW4YoNIJTdE8wxLJ-6" value="" style="endArrow=none;html=1;rounded=0;strokeWidth=1;exitX=0.5;exitY=1;exitDx=0;exitDy=0;" parent="1" source="vDGiRW4YoNIJTdE8wxLJ-4" target="Kd_VAQXIcEHXok77GXxw-8" edge="1">
          <mxGeometry relative="1" as="geometry">
            <mxPoint x="230" y="-30.000000000000227" as="sourcePoint" />
            <mxPoint x="230" y="120" as="targetPoint" />
          </mxGeometry>
        </mxCell>
        <mxCell id="vDGiRW4YoNIJTdE8wxLJ-7" value="" style="endArrow=none;html=1;rounded=0;strokeWidth=1;exitX=0;exitY=0.25;exitDx=0;exitDy=0;entryX=0.5;entryY=0;entryDx=0;entryDy=0;" parent="1" source="Kd_VAQXIcEHXok77GXxw-61" target="vDGiRW4YoNIJTdE8wxLJ-4" edge="1">
          <mxGeometry relative="1" as="geometry">
            <mxPoint x="348.82" y="-170.00000000000023" as="sourcePoint" />
            <mxPoint x="348.82" y="-20" as="targetPoint" />
          </mxGeometry>
        </mxCell>
        <mxCell id="vDGiRW4YoNIJTdE8wxLJ-8" value="RoomRating" style="shape=rhombus;perimeter=rhombusPerimeter;whiteSpace=wrap;html=1;align=center;" parent="1" vertex="1">
          <mxGeometry x="370" y="60" width="120" height="60" as="geometry" />
        </mxCell>
        <mxCell id="vDGiRW4YoNIJTdE8wxLJ-9" value="" style="endArrow=none;html=1;rounded=0;strokeWidth=1;entryX=0.5;entryY=0;entryDx=0;entryDy=0;" parent="1" source="Kd_VAQXIcEHXok77GXxw-61" target="vDGiRW4YoNIJTdE8wxLJ-8" edge="1">
          <mxGeometry relative="1" as="geometry">
            <mxPoint x="640" y="-167.50000000000023" as="sourcePoint" />
            <mxPoint x="300" y="-30.000000000000227" as="targetPoint" />
          </mxGeometry>
        </mxCell>
        <mxCell id="vDGiRW4YoNIJTdE8wxLJ-10" value="" style="endArrow=none;html=1;rounded=0;strokeWidth=1;entryX=0.007;entryY=0.146;entryDx=0;entryDy=0;entryPerimeter=0;" parent="1" source="vDGiRW4YoNIJTdE8wxLJ-8" target="Kd_VAQXIcEHXok77GXxw-11" edge="1">
          <mxGeometry relative="1" as="geometry">
            <mxPoint x="360" y="30" as="sourcePoint" />
            <mxPoint x="320" y="270" as="targetPoint" />
          </mxGeometry>
        </mxCell>
        <mxCell id="vDGiRW4YoNIJTdE8wxLJ-11" value="comment" style="ellipse;whiteSpace=wrap;html=1;align=center;" parent="1" vertex="1">
          <mxGeometry x="320" y="-10" width="100" height="40" as="geometry" />
        </mxCell>
        <mxCell id="vDGiRW4YoNIJTdE8wxLJ-12" value="rating" style="ellipse;whiteSpace=wrap;html=1;align=center;" parent="1" vertex="1">
          <mxGeometry x="280" y="150" width="100" height="40" as="geometry" />
        </mxCell>
        <mxCell id="vDGiRW4YoNIJTdE8wxLJ-13" value="" style="endArrow=none;html=1;rounded=0;strokeWidth=1;exitX=1;exitY=1;exitDx=0;exitDy=0;entryX=0;entryY=0.5;entryDx=0;entryDy=0;" parent="1" source="vDGiRW4YoNIJTdE8wxLJ-4" target="vDGiRW4YoNIJTdE8wxLJ-11" edge="1">
          <mxGeometry relative="1" as="geometry">
            <mxPoint x="580" y="-157.50000000000023" as="sourcePoint" />
            <mxPoint x="240" y="-20.000000000000227" as="targetPoint" />
          </mxGeometry>
        </mxCell>
        <mxCell id="vDGiRW4YoNIJTdE8wxLJ-14" value="" style="endArrow=none;html=1;rounded=0;strokeWidth=1;entryX=1;entryY=0;entryDx=0;entryDy=0;" parent="1" source="vDGiRW4YoNIJTdE8wxLJ-8" target="vDGiRW4YoNIJTdE8wxLJ-12" edge="1">
          <mxGeometry relative="1" as="geometry">
            <mxPoint x="405.857317073171" y="139.99999999999977" as="sourcePoint" />
            <mxPoint x="234.15" y="300" as="targetPoint" />
          </mxGeometry>
        </mxCell>
        <mxCell id="vDGiRW4YoNIJTdE8wxLJ-15" style="edgeStyle=orthogonalEdgeStyle;rounded=0;orthogonalLoop=1;jettySize=auto;html=1;exitX=0.5;exitY=1;exitDx=0;exitDy=0;" parent="1" source="vDGiRW4YoNIJTdE8wxLJ-12" target="vDGiRW4YoNIJTdE8wxLJ-12" edge="1">
          <mxGeometry relative="1" as="geometry" />
        </mxCell>
        <mxCell id="vDGiRW4YoNIJTdE8wxLJ-16" value="image" style="ellipse;whiteSpace=wrap;html=1;align=center;" parent="1" vertex="1">
          <mxGeometry x="250" y="60" width="100" height="40" as="geometry" />
        </mxCell>
        <mxCell id="vDGiRW4YoNIJTdE8wxLJ-17" value="" style="endArrow=none;html=1;rounded=0;strokeWidth=1;exitX=0.592;exitY=0.9;exitDx=0;exitDy=0;exitPerimeter=0;" parent="1" source="vDGiRW4YoNIJTdE8wxLJ-4" target="vDGiRW4YoNIJTdE8wxLJ-16" edge="1">
          <mxGeometry relative="1" as="geometry">
            <mxPoint x="270" y="25" as="sourcePoint" />
            <mxPoint x="330" y="20" as="targetPoint" />
            <Array as="points" />
          </mxGeometry>
        </mxCell>
      </root>
    </mxGraphModel>
  </diagram>
</mxfile>
